<?xml version="1.0" standalone="no"?>
<!DOCTYPE svg PUBLIC "-//W3C//DTD SVG 20010904//EN"
 "http://www.w3.org/TR/2001/REC-SVG-20010904/DTD/svg10.dtd">
<svg version="1.0" xmlns="http://www.w3.org/2000/svg"
 width="500.000000pt" height="500.000000pt" viewBox="0 0 500.000000 500.000000"
 preserveAspectRatio="xMidYMid meet">

<g transform="translate(0.000000,500.000000) scale(0.100000,-0.100000)"
fill="#000000" stroke="none">
<path d="M0 2500 l0 -2500 2500 0 2500 0 0 2500 0 2500 -2500 0 -2500 0 0
-2500z m1922 168 l3 -172 79 92 79 92 127 0 127 0 17 -62 c9 -35 31 -108 48
-163 l31 -100 46 160 47 160 72 3 72 3 -21 -53 c-12 -29 -56 -142 -99 -251
-43 -108 -90 -213 -105 -233 -34 -44 -79 -64 -145 -64 l-50 0 0 45 c0 44 1 45
33 45 18 0 40 6 49 13 39 31 37 42 -46 253 -44 112 -82 203 -85 202 -3 -2 -39
-38 -79 -80 l-74 -76 91 -111 c50 -61 91 -113 91 -116 0 -3 -35 -5 -77 -5
l-78 1 -59 79 c-56 76 -61 79 -78 63 -14 -12 -18 -31 -18 -80 l0 -63 -65 0
-65 0 0 295 0 295 65 0 65 0 2 -172z m1404 143 c9 -17 9 -32 3 -50 -13 -33
-26 -41 -67 -41 -25 0 -36 6 -50 29 l-18 30 -95 -262 -94 -262 -80 -3 -80 -3
-95 267 c-52 147 -96 274 -98 281 -3 11 11 13 65 11 l68 -3 27 -85 c14 -47 46
-148 70 -225 l44 -140 21 65 c12 36 45 138 73 228 l51 162 68 0 c50 0 72 4 81
15 21 26 92 16 106 -14z m-1668 -15 c15 -8 37 -25 49 -38 21 -23 53 -87 53
-108 0 -6 -27 -10 -64 -10 -61 0 -64 1 -76 30 -15 36 -37 50 -79 50 -38 0 -61
-23 -61 -60 0 -37 22 -52 115 -80 123 -38 175 -89 175 -175 0 -68 -55 -134
-128 -155 -48 -13 -137 -13 -185 1 -68 19 -136 99 -137 162 0 4 29 7 65 7 36
0 65 -4 65 -9 0 -20 51 -69 76 -74 40 -7 94 11 103 36 19 51 -5 74 -123 112
-98 32 -129 54 -150 105 -20 52 -20 75 3 126 20 43 69 81 125 95 42 11 140 3
174 -15z m1882 -65 l0 -50 43 -3 c42 -3 42 -3 42 -43 0 -40 0 -40 -42 -43
l-43 -3 0 -114 c0 -62 3 -120 6 -129 4 -10 18 -16 41 -16 34 0 34 0 31 -42
l-3 -43 -77 0 c-67 0 -80 3 -100 23 -22 21 -23 32 -26 172 l-3 149 -32 3 c-30
3 -32 5 -32 43 0 38 2 40 33 43 31 3 32 4 32 53 l0 49 65 0 65 0 0 -49z m407
-65 c57 -29 66 -61 71 -248 l4 -168 -60 0 c-57 0 -60 1 -67 28 -7 26 -7 26
-15 6 -11 -29 -70 -47 -133 -41 -106 10 -155 123 -87 201 37 41 103 66 177 66
51 0 53 1 53 27 0 35 -27 63 -61 63 -30 0 -59 -23 -59 -46 0 -11 -15 -14 -64
-14 l-65 0 9 29 c17 62 34 79 105 108 40 17 152 10 192 -11z m-617 -201 l0
-215 -65 0 -65 0 0 215 0 215 65 0 65 0 0 -215z"/>
<path d="M3815 2433 c-47 -12 -71 -63 -43 -91 7 -7 27 -12 44 -12 39 0 74 38
74 81 0 25 -4 29 -27 28 -16 -1 -37 -4 -48 -6z"/>
</g>
</svg>
